<svg width="395.999" height="238.999" xmlns="http://www.w3.org/2000/svg" xml:space="preserve" version="1.1">

 <g>
  <title>Layer 1</title>
  <g id="svg_1">
   <circle id="svg_2" fill="#222A30" r="51.00999" cy="97.7" cx="56.14"/>
   <path id="svg_3" fill="#222A30" d="m55.449,162.044c-30.882,0.372 -55.449,26.144 -55.449,57.028l0,14.363c0,3.325 2.696,6.021 6.021,6.021l100.239,0c3.325,0 6.021,-2.696 6.021,-6.021l0,-15.255c0,-31.233 -25.51,-56.513 -56.832,-56.136z"/>
   <circle id="svg_4" fill="#222A30" r="55.21" cy="86.05" cx="185.34"/>
   <path id="svg_5" fill="#222A30" d="m184.592,155.681c-33.42,0.402 -60.006,28.292 -60.006,61.715l0,16.039c0,3.325 2.696,6.021 6.021,6.021l109.467,0c3.325,0 6.021,-2.696 6.021,-6.021l0,-17.004c-0.001,-33.803 -27.607,-61.158 -61.503,-60.75z"/>
   <path id="svg_6" fill="#222A30" d="m326.422,126.991c34.917,0 63.223,-28.308 63.223,-63.229c0,-34.913 -28.307,-63.221 -63.223,-63.221c-34.919,0 -63.223,28.308 -63.223,63.221c0,34.921 28.305,63.229 63.223,63.229z"/>
   <path id="svg_7" fill="#222A30" d="m326.421,143.509l0,0c-38.427,0 -69.578,31.151 -69.578,69.578l0,20.349c0,3.325 2.696,6.021 6.021,6.021l127.114,0c3.325,0 6.021,-2.696 6.021,-6.021l0,-20.348c0.001,-38.428 -31.151,-69.579 -69.578,-69.579z"/>
  </g>
  <g id="svg_8"/>
  <g id="svg_9"/>
  <g id="svg_10"/>
  <g id="svg_11"/>
  <g id="svg_12"/>
  <g id="svg_13"/>
  <g id="svg_14"/>
  <g id="svg_15"/>
  <g id="svg_16"/>
  <g id="svg_17"/>
  <g id="svg_18"/>
  <g id="svg_19"/>
  <g id="svg_20"/>
  <g id="svg_21"/>
  <g id="svg_22"/>
 </g>
</svg>