<svg width="38" height="27" viewBox="0 0 38 27" fill="none" xmlns="http://www.w3.org/2000/svg">
<path d="M21.9199 5.53467H6.91988C6.35988 5.53467 5.87988 5.90427 5.87988 6.40827C5.87988 6.87867 6.31988 7.28187 6.91988 7.28187H21.9199C22.4799 7.28187 22.9599 6.91227 22.9599 6.40827C22.9599 5.93787 22.4799 5.53467 21.9199 5.53467Z" fill="black"/>
<path d="M22.9599 11.3135C22.9599 10.8431 22.5199 10.4399 21.9199 10.4399H6.91988C6.35988 10.4399 5.87988 10.8095 5.87988 11.3135C5.87988 11.7839 6.31988 12.1871 6.91988 12.1871H21.9199C22.4799 12.1871 22.9599 11.8175 22.9599 11.3135Z" fill="black"/>
<path d="M18.9599 16.253L19.9999 15.3794H6.91988C6.35988 15.3794 5.87988 15.7826 5.87988 16.253C5.87988 16.7234 6.31988 17.1266 6.91988 17.1266H18.2399C18.4399 16.7906 18.6799 16.4882 18.9599 16.253Z" fill="black"/>
<path d="M6.91988 20.3184C6.35988 20.3184 5.87988 20.688 5.87988 21.192C5.87988 21.6624 6.31988 22.0656 6.91988 22.0656H17.9199C17.7199 21.6624 17.6399 21.2256 17.6799 20.8224L17.7199 20.352H6.91988V20.3184Z" fill="black"/>
<path d="M26.76 23.1745V25.2577H2.04V2.34251H26.76V9.7009L28.8 7.98731V1.97291C28.8 1.23371 28.08 0.628906 27.2 0.628906H1.6C0.72 0.628906 0 1.23371 0 1.97291V25.6273C0 26.4001 0.72 26.9713 1.6 26.9713H27.24C28.12 26.9713 28.84 26.3665 28.84 25.6273V21.4945L27 23.0401C26.96 23.0737 26.84 23.1409 26.76 23.1745Z" fill="black"/>
<path d="M37.5199 9.8015L34.6799 7.4159C34.3599 7.1471 33.9599 7.0127 33.5199 7.0127C33.0799 7.0127 32.6799 7.1471 32.3599 7.4159L20.3999 17.4623C20.1199 17.6975 19.9599 17.9999 19.9199 18.3359L19.7199 20.8895C19.6799 21.2927 19.8799 21.6623 20.1999 21.9647C20.5199 22.2335 20.9199 22.3679 21.3599 22.3679C21.3999 22.3679 21.4399 22.3679 21.4799 22.3679L24.5199 22.1999C24.9199 22.1663 25.2799 22.0319 25.5599 21.7967L37.5199 11.7503C37.8399 11.4815 37.9999 11.1455 37.9999 10.7759C37.9999 10.4063 37.8399 10.0703 37.5199 9.8015ZM24.2399 20.4863L21.8399 20.6207L21.9999 18.6047L30.8399 11.1791L33.1199 13.0943L24.2399 20.4863ZM34.5199 11.8511L32.2399 9.9359L33.5199 8.8607L35.7999 10.7759L34.5199 11.8511Z" fill="black"/>
</svg>
